<svg width="25" height="21" viewBox="0 0 25 21" fill="none" xmlns="http://www.w3.org/2000/svg">
<path d="M23.8933 9.84892L21.7193 6.08217C21.7657 5.9892 21.8006 5.88455 21.8006 5.76828C21.8006 5.41949 21.51 5.12882 21.1612 5.11719L18.7547 0.95517C18.7779 0.885422 18.8012 0.815674 18.8012 0.745926C18.8012 0.37392 18.4989 0.083252 18.1385 0.083252C17.9292 0.083252 17.7548 0.176264 17.6269 0.327393H12.9999C12.8837 0.176308 12.7093 0.0832954 12.5 0.0832954C12.2908 0.0832954 12.1164 0.176308 12.0001 0.327436H7.39634C7.26843 0.176308 7.09409 0.0832954 6.8848 0.0832954C6.52442 0.0832954 6.22212 0.37392 6.22212 0.745969C6.22212 0.815717 6.24539 0.897097 6.26865 0.955214L3.83883 5.1754C3.60637 5.28 3.44357 5.50092 3.44357 5.76832C3.44357 5.79154 3.4552 5.81481 3.4552 5.83807L1.14166 9.83733C0.827767 9.89545 0.595215 10.1629 0.595215 10.4884C0.595215 10.8023 0.816092 11.0697 1.11839 11.1394L3.51331 15.2782C3.49005 15.348 3.47842 15.4061 3.47842 15.4875C3.47842 15.8014 3.69929 16.0688 4.00159 16.1269L6.24539 20.0215C6.22212 20.0912 6.1989 20.1726 6.1989 20.254C6.1989 20.626 6.50116 20.9167 6.86158 20.9167C7.07082 20.9167 7.24521 20.8237 7.36149 20.6842H12.0002C12.1164 20.8236 12.3024 20.9166 12.5 20.9166C12.6976 20.9166 12.8837 20.8236 12.9999 20.6841H17.6502C17.7665 20.812 17.9409 20.8934 18.1269 20.8934C18.4989 20.8934 18.7896 20.5911 18.7896 20.2307C18.7896 20.1609 18.778 20.1028 18.7547 20.0447L20.9985 16.1268C21.3008 16.0687 21.5217 15.8013 21.5217 15.4874C21.5217 15.4177 21.5101 15.3479 21.4868 15.2782L23.8701 11.1394C24.1723 11.0813 24.4049 10.8139 24.4049 10.4883C24.4048 10.1744 24.1839 9.90704 23.8933 9.84892V9.84892ZM6.66388 18.9519L4.76891 15.6618H6.66388V18.9519ZM6.66388 15.313H4.76891C4.75728 15.2665 4.73402 15.2201 4.7108 15.1735L6.66388 13.1158V15.313ZM6.66388 12.6042L4.47824 14.9178C4.42013 14.8945 4.36197 14.8596 4.30385 14.848L1.88575 10.6627C1.90897 10.6046 1.90897 10.5464 1.90897 10.4883C1.90897 10.4302 1.90897 10.3837 1.89734 10.3372L4.15277 6.43095C4.26904 6.41932 4.38528 6.38442 4.48992 6.31468L6.66392 8.5701V12.6042H6.66388ZM6.66388 8.16316L4.6759 6.10543C4.73402 6.01242 4.76891 5.89619 4.76891 5.76832C4.76891 5.75669 4.75728 5.73343 4.75728 5.72179L6.66388 5.03586V8.16316ZM6.66388 4.66381L4.76891 5.34974L6.66388 2.07127V4.66381ZM20.8357 6.3612L20.8706 6.41932L19.336 13.6738L16.569 10.7557L20.8241 6.34957L20.8357 6.3612ZM12.6628 14.8015L13.1627 15.313H12.1745L12.6628 14.8015ZM12.6512 14.3132L9.03558 10.6046L12.4884 6.9425L16.0924 10.7441L12.6512 14.3132V14.3132ZM12.8837 14.569L16.3249 10.9999L19.2546 14.0923L18.9989 15.313H13.6161L12.8837 14.569V14.569ZM17.813 1.31563C17.8595 1.33889 17.906 1.36216 17.9641 1.37379L20.4753 5.74506V5.76832C20.4753 5.89619 20.5101 6.01242 20.5683 6.10543L16.3365 10.5L12.7326 6.69836L17.813 1.31563ZM17.4177 1.22262L12.4884 6.44258L10.0121 3.82678L17.2317 1.22262H17.4177V1.22262ZM12.0582 1.22262C12.1745 1.33885 12.3256 1.4086 12.5 1.4086C12.6745 1.4086 12.8256 1.33885 12.9418 1.22262H16.197L9.75637 3.54775L7.54747 1.22262H12.0582V1.22262ZM7.01271 1.46676L7.05919 1.37379C7.09841 1.36377 7.13721 1.35212 7.17547 1.33889L9.396 3.6757L7.01271 4.53599V1.46676ZM7.01271 4.90799L9.65173 3.95469L12.2443 6.69836L8.79144 10.3488L7.01271 8.52362V4.90799ZM7.01271 8.93047L8.59378 10.5697L7.01271 12.2322V8.93047V8.93047ZM7.01271 12.7438L8.83792 10.8139L12.4303 14.5458L11.6862 15.313H7.01271V12.7438V12.7438ZM7.31496 19.7773C7.24521 19.7076 7.16383 19.6611 7.05919 19.6262L7.01271 19.5564V15.6618H11.3491L7.37308 19.7773H7.31496ZM12.9535 19.7773C12.8372 19.6727 12.6745 19.5913 12.5 19.5913C12.3256 19.5913 12.1629 19.6727 12.0466 19.7773H7.86132L11.8373 15.6618H13.4998L17.4758 19.7773H12.9535ZM18.1618 19.2658L17.9758 19.5913C17.9177 19.6029 17.8712 19.6261 17.8246 19.6494L13.9533 15.6618H18.9175L18.1618 19.2658V19.2658ZM18.7198 18.3008L19.2779 15.6618H20.2312L18.7198 18.3008ZM20.2312 15.313H19.3476L19.5452 14.3946L20.2893 15.1852C20.266 15.22 20.2428 15.2665 20.2312 15.313V15.313ZM23.1027 10.6511L20.6962 14.848C20.6381 14.8712 20.5799 14.8945 20.5218 14.9293L19.6266 13.976L21.1263 6.86112L23.1143 10.3023C23.1027 10.3605 23.0795 10.4186 23.0795 10.4883C23.0795 10.5464 23.0911 10.593 23.1027 10.6511Z" fill="black"/>
</svg>
