<svg width="25" height="21" viewBox="0 0 25 21" fill="none" xmlns="http://www.w3.org/2000/svg">
<path d="M22.9167 0.777832H2.08333C0.93316 0.777832 0 1.71099 0 2.86117V3.55561H25V2.86117C25 1.71099 24.0668 0.777832 22.9167 0.777832ZM0 18.1389C0 19.2891 0.93316 20.2223 2.08333 20.2223H22.9167C24.0668 20.2223 25 19.2891 25 18.1389V4.9445H0V18.1389ZM15.2778 8.0695C15.2778 7.87853 15.434 7.72228 15.625 7.72228H21.875C22.066 7.72228 22.2222 7.87853 22.2222 8.0695V8.76394C22.2222 8.95491 22.066 9.11116 21.875 9.11116H15.625C15.434 9.11116 15.2778 8.95491 15.2778 8.76394V8.0695ZM15.2778 10.8473C15.2778 10.6563 15.434 10.5001 15.625 10.5001H21.875C22.066 10.5001 22.2222 10.6563 22.2222 10.8473V11.5417C22.2222 11.7327 22.066 11.8889 21.875 11.8889H15.625C15.434 11.8889 15.2778 11.7327 15.2778 11.5417V10.8473ZM15.2778 13.6251C15.2778 13.4341 15.434 13.2778 15.625 13.2778H21.875C22.066 13.2778 22.2222 13.4341 22.2222 13.6251V14.3195C22.2222 14.5105 22.066 14.6667 21.875 14.6667H15.625C15.434 14.6667 15.2778 14.5105 15.2778 14.3195V13.6251ZM7.63889 7.72228C9.17101 7.72228 10.4167 8.96794 10.4167 10.5001C10.4167 12.0322 9.17101 13.2778 7.63889 13.2778C6.10677 13.2778 4.86111 12.0322 4.86111 10.5001C4.86111 8.96794 6.10677 7.72228 7.63889 7.72228ZM2.91233 16.5851C3.27691 15.4697 4.32292 14.6667 5.55556 14.6667H5.91146C6.44531 14.8881 7.02691 15.0139 7.63889 15.0139C8.25087 15.0139 8.83681 14.8881 9.36632 14.6667H9.72222C10.9549 14.6667 12.0009 15.4697 12.3655 16.5851C12.5043 17.0148 12.1398 17.4445 11.6884 17.4445H3.58941C3.13802 17.4445 2.77344 17.0105 2.91233 16.5851V16.5851Z" fill="black"/>
</svg>
