<svg width="18" height="16" viewBox="0 0 18 16" fill="none" xmlns="http://www.w3.org/2000/svg">
<path d="M6.81781 13.2544C6.72562 13.0694 6.565 13.0506 6.5 13.0506C6.435 13.0506 6.27437 13.0691 6.18687 13.2441L5.94719 13.7234C5.74812 14.1228 5.165 14.0787 5.02594 13.6581L4.5 12.0809L4.16844 13.0772C3.98437 13.6291 3.46906 14 2.88719 14H2.5C2.22375 14 2 13.7762 2 13.5C2 13.2237 2.22375 13 2.5 13H2.88719C3.03812 13 3.17187 12.9037 3.21969 12.7606L3.78812 11.0531C3.89125 10.7466 4.17687 10.5403 4.5 10.5403C4.82312 10.5403 5.10875 10.7463 5.21156 11.0531L5.64531 12.3544C6.2625 11.8484 7.33469 12.0512 7.70781 12.7969C7.76687 12.915 7.87937 12.9828 8.00031 12.9925V10.4262L12.0003 6.45469V5H7.75C7.3375 5 7 4.6625 7 4.25V0H0.75C0.334375 0 0 0.334375 0 0.75V15.25C0 15.6656 0.334375 16 0.75 16H11.25C11.6656 16 12 15.6656 12 15.25V14L8 13.9966C7.49625 13.9869 7.04437 13.7066 6.81781 13.2544ZM12 3.80937C12 3.6125 11.9219 3.42187 11.7812 3.28125L8.72187 0.21875C8.58125 0.078125 8.39062 0 8.19062 0H8V4H12V3.80937ZM9 10.8425V13H11.1559L16.2084 7.91312L14.0872 5.79187L9 10.8425ZM17.7669 5.22906L16.7709 4.23312C16.4603 3.9225 15.9562 3.9225 15.6456 4.23312L14.7941 5.08469L16.9153 7.20594L17.7669 6.35437C18.0778 6.04375 18.0778 5.53969 17.7669 5.22906Z" fill="white"/>
</svg>
