<svg width="24" height="19" viewBox="0 0 24 19" fill="none" xmlns="http://www.w3.org/2000/svg">
<path d="M23.293 10.4201L15.4193 18.2938C14.7163 18.9968 13.4978 18.5047 13.4978 17.4971V12.9978H7.12382C6.50048 12.9978 5.999 12.4964 5.999 11.873V7.37378C5.999 6.75044 6.50048 6.24896 7.12382 6.24896H13.4978V1.74971C13.4978 0.746753 14.7116 0.24996 15.4193 0.952969L23.293 8.82666C23.7289 9.26721 23.7289 9.97959 23.293 10.4201ZM8.9985 18.0595V16.1848C8.9985 15.8755 8.74542 15.6224 8.4361 15.6224H4.49925C3.6697 15.6224 2.9995 14.9522 2.9995 14.1227V5.12415C2.9995 4.2946 3.6697 3.6244 4.49925 3.6244H8.4361C8.74542 3.6244 8.9985 3.37132 8.9985 3.06199V1.1873C8.9985 0.877981 8.74542 0.624898 8.4361 0.624898H4.49925C2.01529 0.624898 0 2.64019 0 5.12415V14.1227C0 16.6066 2.01529 18.6219 4.49925 18.6219H8.4361C8.74542 18.6219 8.9985 18.3688 8.9985 18.0595Z" fill="white"/>
</svg>
