<svg width="23" height="25" viewBox="0 0 23 25" fill="none" xmlns="http://www.w3.org/2000/svg">
<path d="M14.625 6.64062V0H4.85938C4.20996 0 3.6875 0.522461 3.6875 1.17188V12.5H0.953125C0.738281 12.5 0.5625 12.6758 0.5625 12.8906V13.6719C0.5625 13.8867 0.738281 14.0625 0.953125 14.0625H7.83301C7.97949 14.0625 8.11621 14.1455 8.18457 14.2773L9.15625 16.2207L11.9297 10.6689C12.0713 10.3809 12.4863 10.3809 12.6279 10.6689L14.3223 14.0625H17.75C18.1797 14.0625 18.5312 14.4141 18.5312 14.8438C18.5312 15.2734 18.1797 15.625 17.75 15.625H13.3604L12.2812 13.4668L9.50781 19.0186C9.36621 19.3066 8.95117 19.3066 8.80957 19.0186L7.11035 15.625H3.6875V23.8281C3.6875 24.4775 4.20996 25 4.85938 25H21.2656C21.915 25 22.4375 24.4775 22.4375 23.8281V7.8125H15.7969C15.1523 7.8125 14.625 7.28516 14.625 6.64062ZM22.0957 5.12695L17.3154 0.341797C17.0957 0.12207 16.7979 0 16.4854 0H16.1875V6.25H22.4375V5.95215C22.4375 5.64453 22.3154 5.34668 22.0957 5.12695Z" fill="black"/>
</svg>
