<svg width="18" height="16" viewBox="0 0 18 16" fill="none" xmlns="http://www.w3.org/2000/svg">
<path d="M16.5 2H12V5H6V2H1.5C0.671875 2 0 2.67187 0 3.5V14.5C0 15.3281 0.671875 16 1.5 16H16.5C17.3281 16 18 15.3281 18 14.5V3.5C18 2.67187 17.3281 2 16.5 2ZM9 7C10.1031 7 11 7.89687 11 9C11 10.1031 10.1031 11 9 11C7.89687 11 7 10.1031 7 9C7 7.89687 7.89687 7 9 7ZM11.9156 14H6.08437C5.75938 14 5.49688 13.6875 5.59688 13.3812C5.85625 12.5812 6.60938 12 7.5 12H7.75625C8.14062 12.1594 8.55937 12.25 9 12.25C9.44063 12.25 9.8625 12.1594 10.2437 12H10.5C11.3875 12 12.1406 12.5781 12.4031 13.3812C12.5031 13.6875 12.2406 14 11.9156 14ZM11 1C11 0.446875 10.5531 0 10 0H8C7.44688 0 7 0.446875 7 1V4H11V1Z" fill="#8E83AA"/>
</svg>
