<svg width="18" height="14" viewBox="0 0 18 14" fill="none" xmlns="http://www.w3.org/2000/svg">
<path d="M15.12 6.17332C15.2353 5.87238 15.3 5.54332 15.3 5.2002C15.3 3.70957 14.0906 2.5002 12.6 2.5002C12.0459 2.5002 11.5284 2.66895 11.1009 2.95582C10.3219 1.60582 8.86781 0.700195 7.2 0.700195C4.71375 0.700195 2.7 2.71395 2.7 5.2002C2.7 5.27613 2.70281 5.35207 2.70562 5.42801C1.13062 5.98207 0 7.48395 0 9.2502C0 11.4861 1.81406 13.3002 4.05 13.3002H14.4C16.3884 13.3002 18 11.6886 18 9.7002C18 7.95926 16.7625 6.5052 15.12 6.17332ZM11.3822 8.66801L8.41781 11.6324C8.24344 11.8068 7.95656 11.8068 7.78219 11.6324L4.81781 8.66801C4.53375 8.38395 4.73625 7.9002 5.13562 7.9002H6.975V4.7502C6.975 4.5027 7.1775 4.3002 7.425 4.3002H8.775C9.0225 4.3002 9.225 4.5027 9.225 4.7502V7.9002H11.0644C11.4637 7.9002 11.6663 8.38395 11.3822 8.66801Z" fill="white"/>
</svg>
