<svg width="21" height="18" viewBox="0 0 21 18" fill="none" xmlns="http://www.w3.org/2000/svg">
<path d="M19.0742 12.0952C19.1758 11.5444 19.1758 10.9819 19.0742 10.4312L20.082 9.84912C20.1992 9.78271 20.25 9.646 20.2109 9.51709C19.9492 8.67334 19.5 7.90771 18.9141 7.2749C18.8242 7.17725 18.6797 7.15381 18.5625 7.22021L17.5547 7.80225C17.1289 7.43896 16.6406 7.15771 16.1133 6.97021V5.80615C16.1133 5.67334 16.0195 5.55615 15.8906 5.52881C15.0195 5.3335 14.1328 5.34131 13.3047 5.52881C13.1758 5.55615 13.082 5.67334 13.082 5.80615V6.97021C12.5547 7.15771 12.0664 7.43896 11.6406 7.80225L10.6328 7.22021C10.5195 7.15381 10.3711 7.17725 10.2812 7.2749C9.69531 7.90771 9.24609 8.67334 8.98438 9.51709C8.94531 9.646 9 9.78271 9.11328 9.84912L10.1211 10.4312C10.0195 10.9819 10.0195 11.5444 10.1211 12.0952L9.11328 12.6772C8.99609 12.7437 8.94531 12.8804 8.98438 13.0093C9.24609 13.853 9.69531 14.6147 10.2812 15.2515C10.3711 15.3491 10.5156 15.3726 10.6328 15.3062L11.6406 14.7241C12.0664 15.0874 12.5547 15.3687 13.082 15.5562V16.7202C13.082 16.853 13.1758 16.9702 13.3047 16.9976C14.1758 17.1929 15.0625 17.1851 15.8906 16.9976C16.0195 16.9702 16.1133 16.853 16.1133 16.7202V15.5562C16.6406 15.3687 17.1289 15.0874 17.5547 14.7241L18.5625 15.3062C18.6758 15.3726 18.8242 15.3491 18.9141 15.2515C19.5 14.6187 19.9492 13.853 20.2109 13.0093C20.25 12.8804 20.1953 12.7437 20.082 12.6772L19.0742 12.0952ZM14.6016 13.1577C13.5547 13.1577 12.707 12.3062 12.707 11.2632C12.707 10.2202 13.5586 9.36865 14.6016 9.36865C15.6445 9.36865 16.4961 10.2202 16.4961 11.2632C16.4961 12.3062 15.6484 13.1577 14.6016 13.1577ZM7.72656 8.76318C7.80078 8.76318 7.87109 8.74365 7.94531 8.73975C8.26953 7.89209 8.74609 7.09521 9.36328 6.42725C9.65234 6.11475 10.0625 5.93506 10.4922 5.93506C10.7617 5.93506 11.0273 6.00537 11.2578 6.14209L11.5664 6.32178C11.5977 6.30225 11.6289 6.28662 11.6602 6.26709C11.9336 5.69678 12.0977 5.06397 12.0977 4.39209C12.0977 1.97412 10.1406 0.0170898 7.72266 0.0170898C5.30469 0.0170898 3.35156 1.97021 3.35156 4.38818C3.35156 6.80615 5.30859 8.76318 7.72656 8.76318ZM11.8359 16.3608C11.7461 16.314 11.6562 16.2593 11.5703 16.2085C11.25 16.396 10.9727 16.5913 10.4961 16.5913C10.0703 16.5913 9.66016 16.4116 9.36719 16.0991C8.65234 15.3257 8.10547 14.3843 7.79688 13.3804C7.37891 12.0327 8.76953 11.439 8.80469 11.4155C8.80078 11.314 8.80078 11.2124 8.80469 11.1108L8.49609 10.9312C8.34766 10.8452 8.22266 10.7358 8.11328 10.6147C7.98438 10.6226 7.85938 10.6382 7.73047 10.6382C6.76953 10.6382 5.87109 10.4038 5.05469 10.0132H4.73047C2.24219 10.0132 0.226562 12.0288 0.226562 14.5132V15.6382C0.226562 16.6733 1.06641 17.5132 2.10156 17.5132H12.0781C11.9336 17.2788 11.8359 17.0132 11.8359 16.7202V16.3608Z" fill="white"/>
</svg>
