<svg width="18" height="18" viewBox="0 0 18 18" fill="none" xmlns="http://www.w3.org/2000/svg">
<path d="M9 0.28125C4.18359 0.28125 0.28125 4.18359 0.28125 9C0.28125 13.8164 4.18359 17.7188 9 17.7188C13.8164 17.7188 17.7188 13.8164 17.7188 9C17.7188 4.18359 13.8164 0.28125 9 0.28125ZM9 3.65625C10.7086 3.65625 12.0938 5.04141 12.0938 6.75C12.0938 8.45859 10.7086 9.84375 9 9.84375C7.29141 9.84375 5.90625 8.45859 5.90625 6.75C5.90625 5.04141 7.29141 3.65625 9 3.65625ZM9 15.75C6.93633 15.75 5.08711 14.8148 3.84961 13.3523C4.51055 12.1078 5.8043 11.25 7.3125 11.25C7.39687 11.25 7.48125 11.2641 7.56211 11.2887C8.01914 11.4363 8.49727 11.5312 9 11.5312C9.50273 11.5312 9.98438 11.4363 10.4379 11.2887C10.5188 11.2641 10.6031 11.25 10.6875 11.25C12.1957 11.25 13.4895 12.1078 14.1504 13.3523C12.9129 14.8148 11.0637 15.75 9 15.75Z" fill="white"/>
</svg>
