<?xml version="1.0" encoding="UTF-8"?>
<svg id="Layer_2" data-name="Layer 2" xmlns="http://www.w3.org/2000/svg" xmlns:xlink="http://www.w3.org/1999/xlink" viewBox="0 0 791.17 831.81">
  <defs>
    <style>
      .cls-1 {
        fill: url(#linear-gradient);
      }
    </style>
    <linearGradient id="linear-gradient" x1="0" y1="415.91" x2="791.17" y2="415.91" gradientUnits="userSpaceOnUse">
      <stop offset="0" stop-color="#77c374"/>
      <stop offset="1" stop-color="#35b44a"/>
    </linearGradient>
  </defs>
  <g id="Layer_1-2" data-name="Layer 1">
    <path class="cls-1" d="M786.07,244.86c-8.85-16.98-19.42-32.87-30.13-48.64-16.33-20.95-33.95-40.76-53.63-58.56-61.79-55.84-132.81-95.74-211.93-121.35C437.22-.87,383.73-6.07,328.75,8.47c-80.39,21.26-152.74,57.92-217.35,109.9C67.13,153.99,30.2,195.95,4.08,246.89,1.09,252.73-.11,258.52,0,265c.92,44.9,7.4,89.03,17.58,132.73,5.07,21.85,11.96,43.17,17.88,64.77,4.31,11.57,8.65,23.14,12.94,34.71,8.65,23.22,19.38,45.54,29.53,68.1,12.12,22.05,23.91,44.29,37.75,65.36,4.6,6.99,9.24,13.96,13.88,20.95,1.59,2.02,3.23,3.99,4.74,6.05,30.92,42.31,66.63,79.9,109.29,110.64,20.36,14.68,42.25,26.78,64.69,37.93,22.97,9.32,46.23,17.7,70.51,22.97,7.6,.98,14.98,3.66,22.89,2.15,75.17-14.31,138.8-50.36,193.76-102.83,20.91-19.97,39.45-41.98,57.25-64.67,16.54-22.75,31.56-46.5,45.78-70.74,4.27-8.3,8.52-16.56,12.79-24.85,16.25-31.5,29.33-64.36,41.49-97.6,10.77-33.11,20.34-66.57,26.9-100.81,4.11-21.38,7.58-42.88,9.22-64.63,.22-3.03,.9-5.99,1.37-9.01,.2-9.1-.02-18.19,.74-27.25,.74-8.67-.88-16.39-4.93-24.12ZM158.02,616.26c-1.88,10.32-7.54,18.82-15.96,25.3-20.79-28.76-38.71-59.19-53.55-91.42,3.17-17.93,4.15-36.1,5.46-54.18,1.96-27,1.49-54.06,1.78-81.12,.67-65.67,21.3-124.51,62.2-176.06,14.16-17.84,38.75-20.97,55.66-7.3,17.52,14.16,19.76,38.3,5.33,56.41-30.7,38.55-45.42,82.41-44.72,131.75,.92,66.04-4.35,131.63-16.19,196.62Zm273.7-69.15c-2.35,34.01-6.17,67.84-11.34,101.52-8.03,52.22-19.25,103.75-33.93,154.52-.88,3.02-2.31,5.89-3.47,8.81-20.13-3-39.18-9.77-58.01-17.21-4.97-1.96-10.26-3.41-14.49-6.97,4.88-20.03,9.81-40.02,14.61-60.05,10.32-43.02,17.78-86.54,23.18-130.46,5.91-48.13,8.38-96.43,8.52-144.87,.02-7.26-.92-14.51,.37-21.77,3.62-20.68,21.05-34.85,41.35-33.44,19.89,1.39,35.91,17.66,36.42,38.18,.94,37.3-.63,74.54-3.21,111.74Zm133.69-69.94c-1.19,67.39-7.38,134.28-18.13,200.79-3.54,21.77-23.4,37.38-43.56,33.85-23.69-4.15-37.67-23.85-33.79-46.74,7.32-43.25,12.06-86.8,14.76-130.58,2.06-33.4,2.92-66.79,2.47-100.25-.59-44.62-34.11-83.29-78.4-90.42-40.53-6.54-76.65,10.14-94.59,43.84-6.4,12-9.87,24.89-9.73,38.51,.39,35.48-.27,70.94-3.02,106.34-3.8,48.91-10.4,97.47-20.58,145.48-4.41,20.79-25.2,33.56-46.13,29.17-20.7-4.33-34.38-24.06-30.31-44.66,8.85-45.03,15.59-90.38,19.01-136.14,2.41-32.44,3.41-64.96,3.05-97.49-.88-76.71,49.91-141.87,124.45-159.85,92.04-22.2,184.91,32.93,209.32,124.09,5.97,22.3,5.05,45.03,5.19,67.71,.04,5.46,0,10.91,0,16.37Zm130.32,1.06c-.74,29.31-2.6,58.58-3.97,87.87,.14,1.59,.29,3.19,.43,4.76-.45,.82-.9,1.61-1.35,2.43-8.65,18.7-19.81,35.93-31.03,53.12-6.54,10.02-13.04,20.09-21.05,29.04-19.58-4.68-31.95-20.83-30.21-41.02,2.88-33.27,6.5-66.47,7.58-99.89,1.21-37.46,3.9-75.01-.74-112.35-4.97-40.08-21.13-75.75-46.56-107.04-36.83-45.29-84.29-73.01-141.62-83.39-30.74-5.56-61.5-4.13-92.02,2.72-21.01,4.72-40.76-7.69-46.34-28.74-5.29-20.01,6.54-41.04,27.06-46.74,24.42-6.81,49.5-9.28,74.81-8.87,61.66,.98,118.53,18.03,169.56,52.75,70.82,48.2,115.32,114.25,131.3,198.77,6.05,31.93,4.93,64.32,4.13,96.57Zm-23.57-255.14c-57.49-78.87-134.49-127.81-230.65-143.44-103.38-16.8-197.11,7.28-277.11,76.4-56.35,48.67-90.63,110.49-103.32,184.16-4.91,28.45-3.8,57.07-4.19,85.66-.1,7.03,.02,14.08-2.27,20.89-1,3-1.98,6.01-4.31,8.32-9.14-25.36-15.49-51.51-21.01-77.83-7.64-36.32-12.14-72.99-12.37-110.15-.02-4.21,.86-7.95,2.76-11.71,26.9-53.47,66.41-96.21,113.38-132.32,57.21-43.96,120.53-76.09,190.19-95.29,30.62-8.44,61.77-13.24,93.61-9.87,30.78,3.27,60.56,11.26,89.52,21.91,65.57,24.1,125.23,58.39,177.72,104.69,21.54,19.01,41.08,39.92,58.03,63.16,.8,1.06,1.33,2.31,1.96,3.47-4.31,16.15-14.41,26.98-30.86,29.94-17.21,3.09-30.6-3.62-41.06-17.99Zm87.44,165c-5.54,25.14-12.04,50.06-21.05,74.23-3.37-5.38-4.17-11.36-4.17-17.56,.04-24.04,.63-48.11-2.8-72.01-1.27-8.73-2.62-17.45-4.37-26.08-6.05-29.74,15.15-52.53,45.46-48.69-.98,30.52-6.5,60.4-13.06,90.1Z"/>
  </g>
</svg>