<svg width="18" height="16" viewBox="0 0 18 16" fill="none" xmlns="http://www.w3.org/2000/svg">
<path d="M16.2141 3.5H2.8125C2.50172 3.5 2.25 3.24828 2.25 2.9375C2.25 2.62672 2.50172 2.375 2.8125 2.375H16.3125C16.6233 2.375 16.875 2.12328 16.875 1.8125C16.875 0.880508 16.1195 0.125 15.1875 0.125H2.25C1.00723 0.125 0 1.13223 0 2.375V13.625C0 14.8678 1.00723 15.875 2.25 15.875H16.2141C17.1991 15.875 18 15.1181 18 14.1875V5.1875C18 4.25691 17.1991 3.5 16.2141 3.5ZM14.625 10.8125C14.0038 10.8125 13.5 10.3087 13.5 9.6875C13.5 9.06629 14.0038 8.5625 14.625 8.5625C15.2462 8.5625 15.75 9.06629 15.75 9.6875C15.75 10.3087 15.2462 10.8125 14.625 10.8125Z" fill="#52EB70"/>
</svg>
